# xmcd CD database file
# Copyright (C) 1997 Ti Kan
#
# Track frame offsets:
#  157
#  16620
#  39110
#  59870
#  76252
#  97300
#  116555
#  137232
#  163485
#  187572
#  208480
#  229487
#  245470
#
# Disc length: 3564 seconds
#
# Revision: 2
# Processed by: cddbd v1.4PL0 Copyright (c) Steve Scherf et al.
# Submitted via: Gronk 1.4
#
DISCID=b70dea0d
DTITLE=Steve Young - Solo/Live
DYEAR=1900
DGENRE=country
TTITLE0=Wjhite Trash Song
TTITLE1=Tabacco Road
TTITLE2=Seven Bridges Road
TTITLE3=Don't miss your water
TTITLE4=The River and the Swan
TTITLE5=Lang way to Hollywood
TTITLE6=Don't think twice it's alright
TTITLE7=Ballad of William Sycamore
TTITLE8=Weve been together ofn this earth before
TTITLE9=Montgomery in the Rain
TTITLE10=Go to The Sea No More
TTITLE11=All Her Lovers want to be her Lover
TTITLE12=Drift Away
EXTD=
EXTT0=
EXTT1=
EXTT2=
EXTT3=
EXTT4=
EXTT5=
EXTT6=
EXTT7=
EXTT8=
EXTT9=
EXTT10=
EXTT11=
EXTT12=
PLAYORDER=
